<svg width="60" height="60" viewBox="0 0 60 60" fill="none" xmlns="http://www.w3.org/2000/svg">
<g clip-path="url(#clip0_46_21)">
<path d="M30 37.5C34.1421 37.5 37.5 34.1421 37.5 30C37.5 25.8579 34.1421 22.5 30 22.5C25.8579 22.5 22.5 25.8579 22.5 30C22.5 34.1421 25.8579 37.5 30 37.5Z" stroke="#4F46E5" stroke-width="4" stroke-linecap="round" stroke-linejoin="round"/>
<path d="M7.5 17.5V12.5C7.5 11.1739 8.02678 9.90215 8.96447 8.96447C9.90215 8.02678 11.1739 7.5 12.5 7.5H17.5" stroke="#4F46E5" stroke-width="4" stroke-linecap="round" stroke-linejoin="round"/>
<path d="M42.5 7.5H47.5C48.8261 7.5 50.0979 8.02678 51.0355 8.96447C51.9732 9.90215 52.5 11.1739 52.5 12.5V17.5" stroke="#4F46E5" stroke-width="4" stroke-linecap="round" stroke-linejoin="round"/>
<path d="M52.5 42.5V47.5C52.5 48.8261 51.9732 50.0979 51.0355 51.0355C50.0979 51.9732 48.8261 52.5 47.5 52.5H42.5" stroke="#4F46E5" stroke-width="4" stroke-linecap="round" stroke-linejoin="round"/>
<path d="M17.5 52.5H12.5C11.1739 52.5 9.90215 51.9732 8.96447 51.0355C8.02678 50.0979 7.5 48.8261 7.5 47.5V42.5" stroke="#4F46E5" stroke-width="4" stroke-linecap="round" stroke-linejoin="round"/>
</g>
<defs>
<clipPath id="clip0_46_21">
<rect width="60" height="60" fill="white"/>
</clipPath>
</defs>
</svg>
